<?xml version="1.0" standalone="no"?>
<!DOCTYPE svg PUBLIC "-//W3C//DTD SVG 20010904//EN"
 "http://www.w3.org/TR/2001/REC-SVG-20010904/DTD/svg10.dtd">
<svg version="1.0" xmlns="http://www.w3.org/2000/svg"
 width="1646.000000pt" height="573.000000pt" viewBox="0 0 1646.000000 573.000000"
 preserveAspectRatio="xMidYMid meet">

<g transform="translate(0.000000,573.000000) scale(0.100000,-0.100000)"
fill="#000000" stroke="none">
<path d="M5260 2850 l0 -2360 30 0 30 0 0 2360 0 2360 -30 0 -30 0 0 -2360z"/>
<path d="M1814 4837 c-147 -58 -215 -222 -150 -363 41 -88 144 -154 241 -154
48 0 122 25 161 55 l35 26 76 -44 76 -44 -2 -66 c-4 -113 52 -205 154 -253 89
-42 214 -26 281 37 l21 20 68 -40 68 -39 1 -78 c1 -90 19 -137 74 -192 95 -94
235 -100 363 -16 26 17 28 16 101 -25 l74 -43 -4 -58 c-17 -240 260 -379 440
-221 65 58 92 125 86 216 -5 79 -22 119 -75 171 -50 51 -106 74 -179 74 -70 0
-116 -13 -161 -46 -17 -13 -37 -24 -44 -24 -7 0 -43 18 -81 40 l-68 41 0 72
c-1 114 -48 195 -144 244 -91 47 -193 35 -297 -33 -24 -16 -27 -15 -89 23
l-63 39 2 66 c4 109 -41 189 -139 246 -39 23 -56 27 -125 27 -83 0 -125 -14
-172 -57 l-22 -20 -78 45 -78 45 3 66 c3 53 -1 75 -21 118 -27 60 -73 109
-126 135 -44 21 -164 27 -207 10z"/>
<path d="M8101 4799 c-186 -36 -361 -210 -400 -397 -16 -75 -14 -208 4 -277
33 -124 131 -253 242 -318 114 -65 292 -87 428 -52 220 58 366 239 391 485 l7
70 -297 0 -296 0 0 -40 0 -40 240 0 240 0 -6 -42 c-32 -202 -163 -333 -361
-361 -147 -22 -285 25 -383 129 -129 136 -155 356 -65 541 42 85 101 142 195
187 62 29 71 31 185 31 109 0 125 -2 177 -27 75 -35 119 -69 153 -118 27 -39
29 -40 86 -40 33 0 59 4 59 8 0 19 -65 104 -109 144 -116 105 -313 152 -490
117z"/>
<path d="M6220 4269 l0 -532 223 6 c158 4 239 10 282 21 238 65 365 240 365
506 0 272 -146 462 -396 515 -47 10 -132 15 -271 15 l-203 0 0 -531z m452 430
c199 -42 309 -193 309 -423 0 -119 -12 -179 -54 -259 -52 -99 -146 -163 -272
-186 -32 -6 -121 -11 -197 -11 l-138 0 0 445 0 445 150 0 c82 0 173 -5 202
-11z"/>
<path d="M7340 4270 l0 -530 50 0 50 0 0 530 0 530 -50 0 -50 0 0 -530z"/>
<path d="M9010 4270 l0 -530 50 0 50 0 0 530 0 530 -50 0 -50 0 0 -530z"/>
<path d="M9370 4760 l0 -40 140 0 140 0 0 -490 0 -490 50 0 50 0 0 490 0 490
140 0 140 0 0 40 0 40 -330 0 -330 0 0 -40z"/>
<path d="M10307 4293 c-103 -279 -190 -518 -194 -530 -5 -22 -2 -23 43 -23
l49 0 45 125 45 125 254 -2 253 -3 29 -80 c66 -182 54 -165 111 -165 42 0 49
2 44 18 -4 9 -91 247 -194 527 l-188 510 -55 3 -55 3 -187 -508z m356 72 l105
-290 -215 -3 c-119 -1 -218 0 -221 2 -2 3 45 138 104 300 60 163 112 292 115
288 4 -4 54 -137 112 -297z"/>
<path d="M11230 4270 l0 -530 245 0 245 0 0 40 0 40 -195 0 -195 0 0 490 0
490 -50 0 -50 0 0 -530z"/>
<path d="M1195 4497 c-129 -52 -199 -171 -175 -297 17 -92 60 -148 143 -190
94 -47 201 -38 283 25 l32 25 75 -43 75 -42 -1 -70 c-1 -115 49 -201 145 -249
91 -45 225 -30 293 34 20 19 21 19 88 -21 l67 -40 0 -72 c0 -160 104 -268 260
-271 65 0 113 15 180 59 24 16 27 15 98 -26 l72 -42 0 -65 c0 -87 16 -134 63
-188 171 -194 488 -60 464 196 -18 207 -262 313 -430 186 l-32 -24 -74 43 -75
43 -1 79 c0 59 -6 88 -22 119 -81 154 -256 191 -414 88 -25 -16 -28 -16 -92
20 l-67 38 6 51 c12 103 -40 206 -128 256 -107 61 -207 52 -319 -30 -12 -9
-31 -3 -92 32 l-76 44 6 51 c11 104 -41 206 -134 261 -53 31 -167 41 -218 20z"/>
<path d="M9294 3331 c-116 -19 -201 -60 -286 -140 -80 -75 -122 -145 -148
-245 -51 -200 -2 -394 135 -531 103 -103 231 -155 385 -155 239 0 434 136 511
356 44 127 33 303 -27 429 -35 76 -138 184 -211 223 -106 55 -246 80 -359 63z
m201 -96 c127 -34 221 -112 278 -232 27 -60 31 -80 35 -179 4 -94 1 -124 -17
-182 -61 -202 -259 -322 -478 -291 -276 39 -429 303 -347 599 60 216 298 345
529 285z"/>
<path d="M13750 3334 c-149 -24 -243 -69 -329 -154 -102 -103 -151 -226 -151
-380 0 -160 46 -277 149 -381 106 -106 234 -159 388 -159 180 0 329 73 435
212 126 167 139 423 31 607 -61 104 -175 195 -287 230 -62 19 -190 33 -236 25z
m220 -113 c162 -62 257 -199 267 -386 9 -160 -33 -281 -132 -374 -66 -63 -138
-97 -227 -110 -201 -28 -383 64 -462 234 -126 268 8 581 279 652 70 18 206 10
275 -16z"/>
<path d="M6220 2800 l0 -530 50 0 50 0 0 530 0 530 -50 0 -50 0 0 -530z"/>
<path d="M6640 2801 l0 -531 50 0 50 0 0 440 c0 242 3 440 8 440 4 0 140 -198
302 -440 l294 -440 53 0 53 0 0 530 0 530 -50 0 -50 0 0 -447 c0 -346 -3 -444
-12 -435 -6 6 -143 206 -303 444 l-291 433 -52 3 -52 3 0 -530z"/>
<path d="M7770 2801 l0 -531 50 0 50 0 0 440 c0 242 3 440 8 440 4 -1 139
-199 301 -440 l295 -440 53 0 53 0 0 530 0 530 -50 0 -50 0 0 -445 c0 -245 -3
-445 -7 -445 -5 1 -141 200 -304 443 l-296 442 -51 3 -52 3 0 -530z"/>
<path d="M10042 3321 c2 -6 95 -244 208 -530 l205 -521 51 0 51 0 206 523
c114 288 207 527 207 531 0 4 -24 6 -52 4 l-53 -3 -143 -375 c-213 -560 -214
-562 -221 -553 -4 4 -86 216 -181 471 l-174 462 -54 0 c-30 0 -52 -4 -50 -9z"/>
<path d="M11429 3303 c-30 -77 -379 -1025 -379 -1029 0 -2 22 -4 49 -4 l49 0
45 123 45 122 252 0 252 0 29 -80 c66 -182 54 -165 111 -165 42 0 49 2 44 18
-3 9 -90 247 -194 527 l-188 510 -52 3 c-49 3 -53 1 -63 -25z m173 -405 l106
-293 -215 -3 c-119 -1 -217 -1 -219 1 -5 4 210 587 216 587 3 0 53 -132 112
-292z"/>
<path d="M12010 3285 l0 -45 140 0 140 0 0 -485 0 -485 50 0 50 0 0 485 0 485
140 0 140 0 0 45 0 45 -330 0 -330 0 0 -45z"/>
<path d="M12900 2800 l0 -530 50 0 50 0 0 530 0 530 -50 0 -50 0 0 -530z"/>
<path d="M14610 2800 l0 -530 50 0 50 0 0 441 c0 262 4 438 9 435 5 -4 141
-202 301 -441 l293 -435 53 0 54 0 0 531 0 530 -52 -3 -53 -3 -3 -444 -2 -445
-301 447 -300 447 -49 0 -50 0 0 -530z"/>
<path d="M2403 3127 c-182 -67 -237 -300 -102 -435 126 -127 336 -99 423 58
26 46 30 65 30 125 0 58 -5 79 -29 124 -35 63 -82 105 -144 126 -52 18 -132
18 -178 2z"/>
<path d="M6607 1855 c-86 -24 -160 -68 -233 -140 -106 -105 -154 -222 -154
-377 0 -159 44 -272 147 -379 261 -270 715 -204 882 128 47 94 64 258 40 375
-38 183 -193 344 -380 393 -67 18 -237 18 -302 0z m292 -123 c96 -28 181 -105
228 -209 23 -49 28 -75 31 -165 5 -131 -17 -216 -76 -293 -160 -210 -504 -204
-653 11 -60 87 -85 209 -68 329 36 263 272 406 538 327z"/>
<path d="M7560 1330 l0 -530 65 0 65 0 0 420 c0 231 3 420 8 420 4 0 133 -189
286 -420 l279 -420 69 0 68 0 0 530 0 530 -70 0 -70 0 0 -422 0 -423 -282 423
-281 422 -69 0 -68 0 0 -530z"/>
<path d="M8710 1330 l0 -530 280 0 280 0 0 55 0 55 -210 0 -210 0 0 190 0 190
190 0 190 0 0 50 0 50 -190 0 -190 0 0 185 0 185 210 0 210 0 0 50 0 50 -280
0 -280 0 0 -530z"/>
</g>
</svg>
