<?xml version="1.0" standalone="no"?>
<!DOCTYPE svg PUBLIC "-//W3C//DTD SVG 20010904//EN"
 "http://www.w3.org/TR/2001/REC-SVG-20010904/DTD/svg10.dtd">
<svg version="1.0" xmlns="http://www.w3.org/2000/svg"
 width="1920.000000pt" height="1080.000000pt" viewBox="0 0 1920.000000 1080.000000"
 preserveAspectRatio="xMidYMid meet">

<g transform="translate(0.000000,1080.000000) scale(0.100000,-0.100000)"
fill="#000000" stroke="none">
<path d="M50 6475 l0 -965 966 -2 c531 -2 968 -1 970 1 2 2 4 438 4 968 l0
963 -970 0 -970 0 0 -965z"/>
<path d="M17770 6785 c-161 -36 -318 -150 -387 -280 -62 -120 -75 -181 -81
-387 l-4 -188 -144 0 -144 0 0 -165 0 -165 145 0 145 0 0 -710 0 -710 205 0
205 0 0 710 0 710 315 0 314 0 3 -537 c3 -533 4 -539 27 -608 56 -169 154
-260 322 -300 119 -28 332 -13 437 30 l32 14 0 165 0 165 -32 -18 c-120 -69
-287 -42 -343 54 -39 66 -45 144 -45 603 l0 432 210 0 210 0 0 165 0 165 -210
0 -210 0 -2 259 -3 259 -197 -61 -198 -60 0 -199 0 -198 -316 0 -316 0 4 168
c4 147 7 173 28 220 60 137 212 187 379 123 l51 -19 0 173 0 174 -37 11 c-62
19 -288 22 -363 5z"/>
<path d="M8491 6644 c-176 -88 -165 -344 17 -421 55 -23 153 -18 216 10 129
59 170 220 86 341 -64 94 -208 125 -319 70z"/>
<path d="M5360 5400 l0 -1220 196 0 196 0 -6 948 c-3 521 -9 972 -12 1002 -9
78 5 56 40 -68 17 -59 195 -506 396 -994 l365 -888 136 0 137 0 27 68 c15 37
180 445 367 907 204 504 348 874 361 925 28 118 40 123 33 15 -3 -49 -8 -501
-12 -1002 l-6 -913 211 0 211 0 0 1220 0 1220 -287 0 -288 -1 -312 -767 c-172
-422 -339 -840 -370 -929 -32 -90 -60 -163 -63 -163 -3 0 -24 58 -47 128 -23
70 -132 354 -243 632 -110 278 -254 639 -318 802 l-117 297 -297 1 -298 0 0
-1220z"/>
<path d="M9855 5956 c-404 -66 -673 -338 -740 -746 -69 -429 90 -800 415 -970
124 -64 233 -91 391 -97 196 -8 346 18 487 84 l52 24 0 184 0 183 -77 -44
c-202 -116 -404 -132 -582 -49 -183 87 -280 266 -281 518 0 335 188 563 490
592 126 12 314 -43 417 -121 l33 -25 0 195 0 195 -31 17 c-17 9 -75 27 -128
41 -119 30 -324 39 -446 19z"/>
<path d="M12577 5960 c-152 -24 -299 -79 -402 -150 -198 -136 -318 -367 -345
-666 -20 -207 14 -408 97 -574 40 -80 62 -110 143 -191 81 -81 109 -102 190
-142 155 -76 223 -90 440 -91 215 -1 306 16 446 84 272 132 431 379 465 726
21 213 -14 423 -98 594 -39 80 -62 110 -138 186 -77 78 -105 98 -185 137 -134
65 -233 87 -410 92 -80 2 -171 0 -203 -5z m228 -330 c137 -20 254 -100 317
-216 53 -97 72 -193 72 -359 0 -170 -15 -250 -65 -353 -83 -170 -265 -256
-479 -224 -198 29 -330 155 -387 372 -24 92 -23 310 2 405 41 161 125 274 245
333 95 47 178 58 295 42z"/>
<path d="M14324 5955 c-138 -25 -246 -75 -336 -155 -111 -98 -158 -209 -158
-368 0 -149 33 -244 117 -333 62 -66 147 -118 321 -195 258 -115 302 -153 302
-267 0 -67 -27 -112 -90 -147 -42 -23 -54 -25 -175 -25 -115 1 -140 4 -215 29
-94 31 -164 64 -225 106 l-40 28 2 -196 c2 -146 6 -198 15 -204 25 -16 174
-58 262 -73 102 -17 262 -19 356 -5 222 35 405 156 475 315 80 179 53 394 -67
530 -69 78 -163 135 -366 221 -124 53 -210 103 -234 138 -10 13 -22 45 -28 71
-29 129 74 225 242 225 116 0 283 -48 370 -105 l38 -25 0 188 0 189 -77 23
c-161 48 -347 61 -489 35z"/>
<path d="M15922 5959 c-158 -20 -330 -90 -437 -176 -196 -159 -298 -384 -312
-690 -24 -520 245 -875 717 -944 103 -15 330 -6 419 16 166 41 287 108 401
224 181 184 257 407 247 726 -8 278 -77 462 -232 620 -153 157 -375 237 -643
234 -53 -1 -125 -5 -160 -10z m232 -329 c188 -28 327 -168 371 -376 20 -93 19
-304 -1 -401 -57 -275 -253 -415 -527 -375 -262 38 -407 242 -407 572 0 400
223 629 564 580z"/>
<path d="M11540 5950 c-126 -27 -247 -126 -311 -255 -17 -36 -35 -65 -38 -65
-3 0 -5 67 -3 150 l3 150 -205 0 -206 0 0 -875 0 -875 205 0 204 0 3 533 c3
519 4 533 25 590 50 132 111 209 205 259 37 20 57 23 143 23 85 0 109 -4 163
-26 l62 -27 0 203 c0 202 0 203 -22 209 -42 12 -182 15 -228 6z"/>
<path d="M8400 5055 l0 -875 205 0 205 0 0 875 0 875 -205 0 -205 0 0 -875z"/>
<path d="M1022 5283 l948 -3 3 -288 2 -287 3 293 2 292 -952 -2 -953 -3 947
-2z"/>
<path d="M1974 4555 c0 -82 2 -115 3 -72 2 43 2 110 0 150 -1 40 -3 5 -3 -78z"/>
<path d="M1974 4215 c0 -104 2 -146 3 -92 2 54 2 139 0 190 -1 51 -3 7 -3 -98z"/>
<path d="M1970 3695 l0 -325 -962 -3 -963 -2 968 -3 967 -2 0 330 c0 182 -2
330 -5 330 -3 0 -5 -146 -5 -325z"/>
</g>
</svg>
