<?xml version="1.0" standalone="no"?>
<!DOCTYPE svg PUBLIC "-//W3C//DTD SVG 20010904//EN"
 "http://www.w3.org/TR/2001/REC-SVG-20010904/DTD/svg10.dtd">
<svg version="1.0" xmlns="http://www.w3.org/2000/svg"
 width="124.000000pt" height="124.000000pt" viewBox="0 0 124.000000 124.000000"
 preserveAspectRatio="xMidYMid meet">

<g transform="translate(0.000000,124.000000) scale(0.100000,-0.100000)"
fill="#000000" stroke="none">
<path d="M135 1221 c-54 -25 -92 -62 -115 -113 -18 -40 -20 -70 -20 -488 0
-492 0 -488 66 -554 53 -53 164 -88 164 -51 0 10 -14 17 -41 21 -83 14 -143
79 -154 167 -4 29 -5 236 -3 462 3 444 3 440 60 491 53 49 51 49 451 52 288 2
377 6 374 15 -3 9 -97 13 -373 14 -341 3 -372 1 -409 -16z"/>
<path d="M1010 1226 c0 -11 13 -18 41 -22 83 -14 143 -79 154 -167 4 -29 5
-236 3 -462 -3 -434 -3 -429 -52 -483 -51 -57 -50 -57 -459 -60 -288 -2 -377
-6 -374 -15 3 -9 98 -12 384 -12 l380 0 48 30 c36 22 57 45 77 84 l28 53 0
448 0 448 -28 53 c-32 62 -95 107 -161 116 -33 5 -41 3 -41 -11z"/>
<path d="M236 1134 c-19 -18 -19 -24 -5 -44 8 -12 9 -11 4 6 -7 28 16 46 52
42 22 -2 29 -9 31 -30 3 -24 0 -27 -35 -31 l-38 -4 38 -1 c34 -2 38 -5 35 -24
-2 -18 -11 -24 -43 -29 l-40 -6 35 -2 c20 0 41 4 48 11 16 16 16 100 0 116
-17 17 -64 15 -82 -4z"/>
<path d="M364 1100 c1 -44 1 -45 38 -48 29 -2 38 -8 41 -25 l4 -22 2 22 c0 12
9 24 19 26 15 4 15 5 0 6 -13 1 -18 13 -21 49 l-3 47 -2 -47 c-2 -48 -2 -48
-36 -48 -34 0 -35 1 -39 43 l-4 42 1 -45z"/>
<path d="M226 939 l-26 -20 0 -279 0 -279 26 -20 c23 -18 41 -21 136 -21 116
0 162 12 206 53 59 55 78 147 46 227 -15 37 -15 43 0 80 32 80 13 172 -46 227
-44 41 -90 53 -206 53 -95 0 -113 -3 -136 -21z m254 -29 c20 -5 51 -25 70 -45
46 -47 54 -123 19 -184 l-23 -41 22 -39 c44 -78 21 -166 -57 -218 -30 -21 -46
-23 -146 -23 -94 0 -114 3 -119 16 -3 9 -6 129 -6 268 0 183 3 255 12 264 15
15 177 16 228 2z"/>
<path d="M321 836 c-7 -9 -11 -41 -9 -83 l3 -68 65 -3 c89 -4 109 2 126 43 31
74 -17 125 -117 125 -37 0 -61 -5 -68 -14z m149 -51 c10 -12 10 -21 2 -40 -10
-22 -18 -25 -67 -25 l-55 0 0 40 0 40 54 0 c36 0 58 -5 66 -15z"/>
<path d="M317 593 c-4 -3 -7 -37 -7 -74 0 -78 10 -89 78 -89 93 0 144 48 122
116 -6 19 -20 39 -30 44 -21 11 -153 14 -163 3z m155 -58 c17 -38 -4 -55 -68
-55 l-54 0 0 40 0 40 55 0 c49 0 57 -3 67 -25z"/>
<path d="M675 935 l-25 -24 0 -271 0 -271 25 -24 c31 -32 69 -32 100 0 23 22
25 32 25 110 0 96 10 125 43 125 40 0 47 -18 47 -117 0 -86 2 -96 25 -118 30
-30 64 -32 99 -4 25 20 26 23 26 135 0 130 -14 174 -72 217 -36 28 -107 50
-141 45 -21 -3 -22 1 -27 90 -4 83 -8 96 -29 113 -32 26 -67 24 -96 -6z m68
-27 c13 -10 17 -34 19 -113 l3 -100 45 -1 c95 -2 101 -4 143 -43 l42 -40 3
-101 c5 -119 -1 -150 -27 -150 -32 0 -39 21 -43 123 -3 90 -5 101 -27 118 -23
19 -65 25 -95 13 -29 -11 -41 -47 -46 -143 -4 -73 -9 -96 -22 -104 -12 -8 -21
-7 -32 2 -14 12 -16 48 -16 270 0 187 3 260 12 269 15 15 20 15 41 0z"/>
<path d="M468 229 c-5 -34 6 -43 44 -36 18 3 17 5 -8 6 -27 1 -31 4 -27 25 4
19 13 26 37 29 30 4 30 4 -5 5 -34 2 -37 0 -41 -29z"/>
<path d="M627 252 c7 -4 14 -37 16 -72 l3 -65 2 73 c2 63 0 72 -15 72 -12 0
-14 -3 -6 -8z"/>
<path d="M692 213 l-2 -53 34 0 c28 0 35 -4 39 -22 4 -23 4 -23 6 -1 1 14 9
23 24 26 l22 4 -22 2 c-19 1 -22 8 -26 49 l-3 47 -2 -47 c-2 -46 -3 -48 -31
-48 -28 0 -30 2 -34 48 l-3 47 -2 -52z"/>
<path d="M539 165 c-3 -25 -10 -31 -39 -36 -34 -6 -34 -6 -5 -8 43 -1 57 11
53 45 l-4 29 -5 -30z"/>
</g>
</svg>
